<svg width="32" height="32" viewBox="0 0 32 32" fill="none" xmlns="http://www.w3.org/2000/svg">
    <!-- Background -->
    <rect width="32" height="32" rx="8" fill="#1E40AF"/>
    
    <!-- Book Shape -->
    <path d="M8 8C8 7.44772 8.44772 7 9 7H23C23.5523 7 24 7.44772 24 8V24C24 24.5523 23.5523 25 23 25H9C8.44772 25 8 24.5523 8 24V8Z" 
          fill="#2563EB"/>
    
    <!-- Pages -->
    <rect x="10" y="10" width="12" height="2" rx="1" fill="white"/>
    <rect x="10" y="14" width="12" height="2" rx="1" fill="white"/>
    <rect x="10" y="18" width="8" height="2" rx="1" fill="white"/>
    
    <!-- A -->
    <path d="M13 12L15 20M15 20L17 12M15 20L11 20M15 20L19 20" 
          stroke="white" stroke-width="1.5" stroke-linecap="round" stroke-linejoin="round"/>
    
    <!-- N -->
    <path d="M19 12V20M19 12L21 20M21 12V20" 
          stroke="white" stroke-width="1.5" stroke-linecap="round" stroke-linejoin="round"/>
    
    <!-- Highlight -->
    <circle cx="24" cy="8" r="3" fill="#4F46E5"/>
</svg>